<svg xmlns="http://www.w3.org/2000/svg" width="128" height="128" viewBox="0 0 128 128">
  <title>PAD LOCK</title>
  <g>
    <g>
      <rect x="38.455" y="52.26" width="51.089" height="51.089" rx="3.109" ry="3.109" fill="#d2ddff"/>
      <path d="M64,24.651A18.375,18.375,0,0,0,45.625,43.026V52.26h6.333V43.208a12.042,12.042,0,0,1,24.084,0V52.26h6.333V43.026A18.375,18.375,0,0,0,64,24.651Z" fill="#8299fd"/>
      <path d="M70.726,74.059a6.726,6.726,0,1,0-10.332,5.672V90.5h7.212V79.731A6.715,6.715,0,0,0,70.726,74.059Z" fill="#8299fd"/>
    </g>
    <g>
      <path d="M86.436,50.51H84.125V43.026A20.14,20.14,0,0,0,60.112,23.277a1.75,1.75,0,1,0,.673,3.434,16.643,16.643,0,0,1,19.84,16.315V50.51H53.708v-7.3a10.292,10.292,0,0,1,20.584,0v2.625a1.75,1.75,0,0,0,3.5,0V43.208a13.792,13.792,0,0,0-27.584,0v7.3H47.375V43.026A16.463,16.463,0,0,1,50.82,32.891a1.75,1.75,0,0,0-2.772-2.136,19.936,19.936,0,0,0-4.173,12.271V50.51H41.564a4.863,4.863,0,0,0-4.858,4.859V100.24a4.864,4.864,0,0,0,4.858,4.859H86.436a4.864,4.864,0,0,0,4.858-4.859V91.5a1.75,1.75,0,0,0-3.5,0v8.74a1.359,1.359,0,0,1-1.358,1.359H41.564a1.359,1.359,0,0,1-1.358-1.359V55.369a1.359,1.359,0,0,1,1.358-1.359H86.436a1.359,1.359,0,0,1,1.358,1.359V77.375a1.75,1.75,0,0,0,3.5,0V55.369A4.863,4.863,0,0,0,86.436,50.51Z" fill="#3536c0"/>
      <path d="M89.544,82a1.751,1.751,0,0,0-1.75,1.75v.875a1.75,1.75,0,0,0,3.5,0V83.75A1.75,1.75,0,0,0,89.544,82Z" fill="#3536c0"/>
      <path d="M53.921,29.41a1.744,1.744,0,0,0,.959-.287c.192-.126.388-.248.585-.367a1.75,1.75,0,0,0-1.8-3q-.358.214-.707.443a1.75,1.75,0,0,0,.962,3.213Z" fill="#3536c0"/>
      <path d="M60.394,83.75a1.75,1.75,0,0,0-1.75,1.75v5a1.751,1.751,0,0,0,1.75,1.75h7.212a1.751,1.751,0,0,0,1.75-1.75V80.623a8.476,8.476,0,1,0-9.9.584,1.75,1.75,0,0,0,1.88-2.953,4.976,4.976,0,1,1,5.332,0,1.75,1.75,0,0,0-.81,1.476v9.02H62.144V85.5A1.75,1.75,0,0,0,60.394,83.75Z" fill="#3536c0"/>
    </g>
  </g>
</svg>
