<svg width="1070" height="770" viewBox="0 0 1070 770" fill="none" xmlns="http://www.w3.org/2000/svg">
<rect x="129" y="418" width="2" height="65" stroke="#E9E5E5" stroke-width="2" stroke-dasharray="7 7"/>
<rect x="129" y="418" width="242" height="2" stroke="#E9E5E5" stroke-width="2" stroke-dasharray="7 7"/>
<rect x="756" y="162" width="2" height="125" stroke="#E9E5E5" stroke-width="2" stroke-dasharray="7 7"/>
<rect x="756" y="162" width="242" height="2" stroke="#E9E5E5" stroke-width="2" stroke-dasharray="7 7"/>
<rect x="515" y="285" width="242" height="2" stroke="#E9E5E5" stroke-width="2" stroke-dasharray="7 7"/>
<rect width="2" height="79" transform="matrix(1 0 0 -1 190 348)" stroke="#E9E5E5" stroke-width="2" stroke-dasharray="7 7"/>
<rect width="242" height="2.43077" transform="matrix(1 0 0 -1 190 348)" stroke="#E9E5E5" stroke-width="2" stroke-dasharray="7 7"/>
<rect x="788" y="537" width="2.02479" height="79" transform="rotate(180 788 537)" stroke="#E9E5E5" stroke-width="2" stroke-dasharray="7 7"/>
<rect x="788" y="537" width="245" height="2.43077" transform="rotate(180 788 537)" stroke="#E9E5E5" stroke-width="2" stroke-dasharray="7 7"/>
<g filter="url(#filter0_d)">
<rect x="336" y="44" width="333" height="653" rx="50" fill="#1F253F"/>
</g>
<rect x="348" y="56" width="309" height="629" rx="40" fill="#F2F3F8"/>
<path d="M459.407 515.875C447.802 528.849 442.246 546.941 445.951 565.318" stroke="#224AFA" stroke-width="4" stroke-miterlimit="10" stroke-linecap="round" stroke-linejoin="round"/>
<path d="M534.408 506.941C522.097 498.465 506.498 494.797 490.688 497.985C482.076 499.721 474.309 503.309 467.719 508.249" stroke="#224AFA" stroke-width="4" stroke-miterlimit="10" stroke-linecap="round" stroke-linejoin="round"/>
<path d="M558.018 542.72C555.744 531.44 550.294 521.611 542.787 513.976" stroke="#224AFA" stroke-width="4" stroke-miterlimit="10" stroke-linecap="round" stroke-linejoin="round"/>
<path d="M559.177 555.169C559.256 551.071 558.893 546.9 558.049 542.715" stroke="#224AFA" stroke-width="4" stroke-miterlimit="10" stroke-linecap="round" stroke-linejoin="round"/>
<path d="M445.982 565.312C446.148 566.133 446.33 566.946 446.529 567.751" stroke="#224AFA" stroke-width="4" stroke-miterlimit="10" stroke-linecap="round" stroke-linejoin="round"/>
<path d="M487.228 609.25C500.034 594.675 506.131 574.502 502 554.017" stroke="#224AFA" stroke-width="4" stroke-miterlimit="10" stroke-linecap="round" stroke-linejoin="round"/>
<path d="M517.078 557.991C516.823 555.731 516.468 553.463 516.01 551.192L516.026 551.187C514.462 543.432 506.909 538.413 499.155 539.977C491.4 541.54 486.382 549.094 487.946 556.849C488.358 560.315 492.863 584.828 473.085 603.332" stroke="#224AFA" stroke-width="4" stroke-miterlimit="10" stroke-linecap="round" stroke-linejoin="round"/>
<path d="M503.811 611.154C512.053 599.11 516.96 584.796 517.522 569.725" stroke="#224AFA" stroke-width="4" stroke-miterlimit="10" stroke-linecap="round" stroke-linejoin="round"/>
<path d="M474.417 546.376C473.249 550.575 473.027 555.106 473.948 559.672L473.981 559.665C476.692 573.109 471.476 586.307 461.557 594.432" stroke="#224AFA" stroke-width="4" stroke-miterlimit="10" stroke-linecap="round" stroke-linejoin="round"/>
<path d="M522.493 607.378C531.11 589.691 534.208 569.141 530.019 548.367C529.005 543.436 520.713 521.063 496.333 525.978C489.697 527.317 484.064 530.851 480.039 535.672" stroke="#224AFA" stroke-width="4" stroke-miterlimit="10" stroke-linecap="round" stroke-linejoin="round"/>
<path d="M492.469 512.205C469.846 517.343 455.339 539.627 459.95 562.495L459.972 562.489C461.574 570.438 458.564 578.245 452.785 583.141" stroke="#224AFA" stroke-width="4" stroke-miterlimit="10" stroke-linecap="round" stroke-linejoin="round"/>
<path d="M542.562 594.284C546.677 578.851 547.4 562.26 544.029 545.543L544.021 545.543C540.045 525.825 523.135 512.016 503.906 511.169" stroke="#224AFA" stroke-width="4" stroke-miterlimit="10" stroke-linecap="round" stroke-linejoin="round"/>
<path d="M433 54H572V60C572 68.8366 564.837 76 556 76H449C440.163 76 433 68.8366 433 60V54Z" fill="#1F253F"/>
<g filter="url(#filter1_d)">
<rect x="587" y="378" width="340" height="80" rx="40" fill="white"/>
</g>
<circle cx="637" cy="418" r="17" fill="#224AFA"/>
<circle cx="685" cy="418" r="17" fill="#224AFA"/>
<circle cx="733" cy="418" r="17" fill="#224AFA"/>
<circle cx="781" cy="418" r="17" fill="#224AFA"/>
<circle cx="829" cy="418" r="17" fill="#E5E6EB"/>
<circle cx="877" cy="418" r="17" fill="#E5E6EB"/>
<g filter="url(#filter2_d)">
<rect x="110" y="141" width="166" height="166" rx="38" fill="white"/>
</g>
<path d="M248.259 248.254C246.709 248.254 245.418 249.545 245.418 251.095V262.976C245.418 270.337 239.477 276.278 232.116 276.278H219.202C217.652 276.278 216.36 277.569 216.36 279.119C216.36 280.669 217.652 281.96 219.202 281.96H232.116C242.577 281.96 251.1 273.437 251.1 262.976V251.095C251.1 249.545 249.809 248.254 248.259 248.254Z" fill="#224AFA"/>
<path d="M232.116 165.989H219.202C217.652 165.989 216.36 167.281 216.36 168.83C216.36 170.38 217.652 171.672 219.202 171.672H232.116C239.477 171.672 245.418 177.612 245.418 184.973V198.792C245.418 200.341 246.709 201.633 248.259 201.633C249.809 201.633 251.1 200.341 251.1 198.792V184.973C251.1 174.513 242.577 165.989 232.116 165.989Z" fill="#224AFA"/>
<path d="M217.523 222.554C219.46 222.554 221.01 221.004 221.139 219.067V209.768C221.139 207.702 219.589 206.152 217.523 206.152C215.456 206.152 213.907 207.831 213.907 209.768V218.938C213.907 221.004 215.586 222.554 217.523 222.554Z" fill="#224AFA"/>
<path d="M210.807 247.608C206.158 252.257 199.959 254.84 193.631 254.84H192.598C186.141 254.84 180.071 252.257 175.422 247.608C174.389 246.446 172.581 246.446 171.418 247.608C170.256 248.641 170.256 250.449 171.418 251.611C177.23 257.423 184.72 260.522 192.598 260.522H193.631C201.509 260.522 209.128 257.423 214.811 251.611C215.973 250.578 215.973 248.77 214.811 247.608C213.778 246.446 211.969 246.446 210.807 247.608Z" fill="#224AFA"/>
<path d="M186.012 239.73H186.657C192.469 239.73 197.118 235.081 197.118 229.399V209.769C197.118 208.219 195.827 206.928 194.277 206.928C192.727 206.928 191.436 208.219 191.436 209.769V229.27C191.436 231.982 189.24 234.048 186.657 234.048H186.012C184.462 234.048 183.171 235.339 183.171 236.889C183.171 238.439 184.462 239.73 186.012 239.73Z" fill="#224AFA"/>
<path d="M166.898 206.152C164.832 206.152 163.282 207.831 163.282 209.768V218.938C163.282 221.004 164.961 222.554 166.898 222.554C168.965 222.554 170.514 221.004 170.514 219.067V209.768C170.514 207.702 168.836 206.152 166.898 206.152Z" fill="#224AFA"/>
<path d="M137.97 201.633C139.52 201.633 140.811 200.341 140.811 198.792V184.973C140.811 177.612 146.752 171.672 154.113 171.672H167.028C168.577 171.672 169.869 170.38 169.869 168.83C169.869 167.281 168.577 165.989 167.028 165.989H154.113C143.653 165.989 135.129 174.513 135.129 184.973V198.792C135.129 200.341 136.421 201.633 137.97 201.633Z" fill="#224AFA"/>
<path d="M166.898 276.278H153.984C146.623 276.278 140.682 270.337 140.682 262.976V251.095C140.682 249.545 139.391 248.254 137.841 248.254C136.291 248.254 135 249.545 135 251.095V262.976C135 273.437 143.523 281.96 153.984 281.96H166.898C168.577 281.96 169.74 280.669 169.74 279.119C169.74 277.569 168.448 276.278 166.898 276.278Z" fill="#224AFA"/>
<rect x="418" y="171" width="165" height="24" rx="12" fill="#35373E" fill-opacity="0.2"/>
<rect x="388" y="235" width="227" height="14" rx="7" fill="#1C1D21" fill-opacity="0.1"/>
<rect x="414" y="265" width="177" height="14" rx="7" fill="#1C1D21" fill-opacity="0.1"/>
<g filter="url(#filter3_d)">
<path d="M827 93.0051C827 84.7188 833.719 78.0023 842.005 78.0051L876.75 78.0168L926.5 78.0336L976.25 78.0168L1010.99 78.0051C1019.28 78.0023 1026 84.7188 1026 93.0051V173.733V173.733C1026 229.956 987.639 278.925 933.051 292.385L926.5 294V294C868.43 279.681 827 227.436 827 167.627V93.0051Z" fill="white"/>
</g>
<path d="M847 103.007C847 99.6906 849.687 97.0031 853.004 97.0066C866.64 97.0211 900.756 97.0543 926.5 97.0543C952.244 97.0543 986.36 97.0211 999.996 97.0066C1003.31 97.0031 1006 99.6906 1006 103.007V175.448V175.448C1006 221.579 974.67 261.818 929.946 273.128L926.5 274V274C879.75 262.178 847 220.115 847 171.893V103.007Z" fill="#224AFA" fill-opacity="0.07"/>
<path d="M891 185.96L914.143 209L963 145" stroke="#224AFA" stroke-width="7" stroke-miterlimit="10" stroke-linecap="round" stroke-linejoin="round"/>
<g filter="url(#filter4_d)">
<rect x="44" y="461" width="170" height="170" rx="38" fill="white"/>
</g>
<path d="M113.5 511.125C114.503 511.128 115.489 511.389 116.362 511.883C117.236 512.378 117.967 513.089 118.485 513.948L128.419 530.5H177.438V495.625C177.438 494.597 177.029 493.612 176.303 492.885C175.576 492.158 174.59 491.75 173.562 491.75H84.4375C83.4098 491.75 82.4242 492.158 81.6975 492.885C80.9708 493.612 80.5625 494.597 80.5625 495.625V511.125H113.5Z" fill="#E5E6EB"/>
<path d="M183.25 534.375H126.222L115.16 515.94C114.988 515.653 114.745 515.416 114.454 515.251C114.163 515.087 113.834 515 113.5 515H74.75C73.7223 515 72.7367 515.408 72.01 516.135C71.2833 516.862 70.875 517.847 70.875 518.875V588.625C70.875 591.708 72.0998 594.665 74.2799 596.845C76.46 599.025 79.4169 600.25 82.5 600.25H175.5C178.583 600.25 181.54 599.025 183.72 596.845C185.9 594.665 187.125 591.708 187.125 588.625V538.25C187.125 537.222 186.717 536.237 185.99 535.51C185.263 534.783 184.278 534.375 183.25 534.375Z" fill="#C3C5CE"/>
<g filter="url(#filter5_d)">
<circle cx="171.5" cy="588.5" r="28.5" fill="#224AFA"/>
</g>
<path d="M180.999 586H177.999V582.01C178.012 580.431 177.399 578.912 176.292 577.785C175.186 576.658 173.678 576.016 172.099 576H172.009C170.434 575.982 168.916 576.59 167.789 577.691C166.662 578.792 166.019 580.295 166 581.87V586H163C162.735 586 162.48 586.106 162.293 586.293C162.105 586.481 162 586.735 162 587V599C162 599.266 162.105 599.52 162.293 599.708C162.48 599.895 162.735 600 163 600H181C181.265 600 181.52 599.895 181.707 599.708C181.895 599.52 182 599.266 182 599V587C182 586.869 181.974 586.739 181.924 586.617C181.873 586.496 181.8 586.386 181.707 586.293C181.614 586.2 181.503 586.126 181.382 586.076C181.261 586.026 181.13 586 180.999 586ZM171.999 595C171.603 595 171.217 594.883 170.888 594.663C170.559 594.444 170.303 594.131 170.151 593.766C170 593.4 169.96 592.998 170.037 592.61C170.115 592.222 170.305 591.866 170.585 591.586C170.864 591.306 171.221 591.116 171.609 591.039C171.997 590.962 172.399 591.001 172.764 591.153C173.13 591.304 173.442 591.56 173.662 591.889C173.882 592.218 173.999 592.605 173.999 593C173.999 593.263 173.947 593.523 173.847 593.766C173.746 594.008 173.599 594.229 173.413 594.415C173.227 594.6 173.007 594.748 172.764 594.848C172.522 594.949 172.262 595 171.999 595V595ZM175.999 586H167.999V581.91C168.012 580.869 168.434 579.874 169.175 579.142C169.917 578.41 170.916 578 171.958 578H172.089C173.138 578.013 174.139 578.441 174.872 579.191C175.605 579.941 176.01 580.952 175.999 582V586Z" fill="white"/>
<rect x="167.079" y="588" width="9" height="8" fill="white"/>
<defs>
<filter id="filter0_d" x="272" y="0" width="461" height="781" filterUnits="userSpaceOnUse" color-interpolation-filters="sRGB">
<feFlood flood-opacity="0" result="BackgroundImageFix"/>
<feColorMatrix in="SourceAlpha" type="matrix" values="0 0 0 0 0 0 0 0 0 0 0 0 0 0 0 0 0 0 127 0"/>
<feOffset dy="20"/>
<feGaussianBlur stdDeviation="32"/>
<feColorMatrix type="matrix" values="0 0 0 0 0.203922 0 0 0 0 0.184314 0 0 0 0 0.333333 0 0 0 0.33 0"/>
<feBlend mode="normal" in2="BackgroundImageFix" result="effect1_dropShadow"/>
<feBlend mode="normal" in="SourceGraphic" in2="effect1_dropShadow" result="shape"/>
</filter>
<filter id="filter1_d" x="543" y="354" width="428" height="168" filterUnits="userSpaceOnUse" color-interpolation-filters="sRGB">
<feFlood flood-opacity="0" result="BackgroundImageFix"/>
<feColorMatrix in="SourceAlpha" type="matrix" values="0 0 0 0 0 0 0 0 0 0 0 0 0 0 0 0 0 0 127 0"/>
<feOffset dy="20"/>
<feGaussianBlur stdDeviation="22"/>
<feColorMatrix type="matrix" values="0 0 0 0 0.203922 0 0 0 0 0.184314 0 0 0 0 0.333333 0 0 0 0.15 0"/>
<feBlend mode="normal" in2="BackgroundImageFix" result="effect1_dropShadow"/>
<feBlend mode="normal" in="SourceGraphic" in2="effect1_dropShadow" result="shape"/>
</filter>
<filter id="filter2_d" x="66" y="117" width="254" height="254" filterUnits="userSpaceOnUse" color-interpolation-filters="sRGB">
<feFlood flood-opacity="0" result="BackgroundImageFix"/>
<feColorMatrix in="SourceAlpha" type="matrix" values="0 0 0 0 0 0 0 0 0 0 0 0 0 0 0 0 0 0 127 0"/>
<feOffset dy="20"/>
<feGaussianBlur stdDeviation="22"/>
<feColorMatrix type="matrix" values="0 0 0 0 0.204333 0 0 0 0 0.183333 0 0 0 0 0.333333 0 0 0 0.19 0"/>
<feBlend mode="normal" in2="BackgroundImageFix" result="effect1_dropShadow"/>
<feBlend mode="normal" in="SourceGraphic" in2="effect1_dropShadow" result="shape"/>
</filter>
<filter id="filter3_d" x="783" y="54.0049" width="287" height="303.995" filterUnits="userSpaceOnUse" color-interpolation-filters="sRGB">
<feFlood flood-opacity="0" result="BackgroundImageFix"/>
<feColorMatrix in="SourceAlpha" type="matrix" values="0 0 0 0 0 0 0 0 0 0 0 0 0 0 0 0 0 0 127 0"/>
<feOffset dy="20"/>
<feGaussianBlur stdDeviation="22"/>
<feColorMatrix type="matrix" values="0 0 0 0 0.204333 0 0 0 0 0.183333 0 0 0 0 0.333333 0 0 0 0.19 0"/>
<feBlend mode="normal" in2="BackgroundImageFix" result="effect1_dropShadow"/>
<feBlend mode="normal" in="SourceGraphic" in2="effect1_dropShadow" result="shape"/>
</filter>
<filter id="filter4_d" x="0" y="437" width="258" height="258" filterUnits="userSpaceOnUse" color-interpolation-filters="sRGB">
<feFlood flood-opacity="0" result="BackgroundImageFix"/>
<feColorMatrix in="SourceAlpha" type="matrix" values="0 0 0 0 0 0 0 0 0 0 0 0 0 0 0 0 0 0 127 0"/>
<feOffset dy="20"/>
<feGaussianBlur stdDeviation="22"/>
<feColorMatrix type="matrix" values="0 0 0 0 0.204333 0 0 0 0 0.183333 0 0 0 0 0.333333 0 0 0 0.19 0"/>
<feBlend mode="normal" in2="BackgroundImageFix" result="effect1_dropShadow"/>
<feBlend mode="normal" in="SourceGraphic" in2="effect1_dropShadow" result="shape"/>
</filter>
<filter id="filter5_d" x="119" y="546" width="105" height="105" filterUnits="userSpaceOnUse" color-interpolation-filters="sRGB">
<feFlood flood-opacity="0" result="BackgroundImageFix"/>
<feColorMatrix in="SourceAlpha" type="matrix" values="0 0 0 0 0 0 0 0 0 0 0 0 0 0 0 0 0 0 127 0"/>
<feOffset dy="10"/>
<feGaussianBlur stdDeviation="12"/>
<feColorMatrix type="matrix" values="0 0 0 0 0.133333 0 0 0 0 0.290196 0 0 0 0 0.980392 0 0 0 0.3 0"/>
<feBlend mode="normal" in2="BackgroundImageFix" result="effect1_dropShadow"/>
<feBlend mode="normal" in="SourceGraphic" in2="effect1_dropShadow" result="shape"/>
</filter>
</defs>
</svg>
