<svg xmlns="http://www.w3.org/2000/svg" width="960" height="745.896" viewBox="0 0 960 745.896"><g transform="translate(629.68 271.285)"><g transform="translate(0 0)"><path d="M609.416,355.1l-58.567-49.463a9.9,9.9,0,0,1-1.175-13.942l10.773-12.766a9.9,9.9,0,0,1,13.942-1.175l58.567,49.463a9.9,9.9,0,0,1,1.175,13.942l-10.78,12.766A9.9,9.9,0,0,1,609.416,355.1Z" transform="translate(-547.343 -275.422)" fill="#3f3d56"/><path d="M551.75,291.644a5.338,5.338,0,0,0,.633,7.513L610.95,348.62a5.338,5.338,0,0,0,7.512-.633l10.78-12.766a5.338,5.338,0,0,0-.633-7.513l-58.567-49.463a5.338,5.338,0,0,0-7.513.633Z" transform="translate(-545.174 -274.343)" fill="#4f7cff"/></g></g><g transform="translate(646.364 100.762)"><rect width="23.139" height="30.498" transform="translate(54.362 591.747)" fill="#ed9da0"/><path d="M718.634,510.091H669.449a28.366,28.366,0,0,1-12.217-2.784l-9.066-4.357a5.447,5.447,0,0,1,.907-10.156l18.709-5.176,32-16.818.024.119c.6,3.031,1.525,7.61,1.644,7.889,3.282,3.763,6.653,5.491,10.021,5.151,5.873-.6,9.778-7.38,9.816-7.446l.03-.052.059.006a3.894,3.894,0,0,1,3.024,1.65c1.34,2.024.523,5.131.388,5.6,1.6,1.568,2.325,10.337,2.381,11.046,2.32,2.459,3.422,4.822,3.277,7.023a7.567,7.567,0,0,1-3.176,5.318,13.736,13.736,0,0,1-8.635,2.989Z" transform="translate(-645.082 133.202)" fill="#090814"/><rect width="23.139" height="30.498" transform="translate(207.896 584.302) rotate(-16.22)" fill="#ed9da0"/><path d="M840.225,497.617,793,511.357a28.37,28.37,0,0,1-12.509.74l-9.924-1.652a5.446,5.446,0,0,1-1.961-10l16.514-10.2,26.033-25.086.056.1c1.417,2.738,3.6,6.88,3.782,7.115,4.2,2.694,7.922,3.415,11.06,2.143,5.476-2.212,7.327-9.815,7.346-9.891l.014-.058.058-.011a3.9,3.9,0,0,1,3.364.738c1.852,1.568,1.934,4.782,1.937,5.27,1.98,1.058,5.119,9.277,5.371,9.94,2.915,1.713,4.633,3.675,5.108,5.833a7.566,7.566,0,0,1-1.568,5.991,13.734,13.734,0,0,1-7.456,5.282Z" transform="translate(-599.51 130.817)" fill="#090814"/><path d="M784.947,74.115a37.616,37.616,0,1,0-48.889,35.9l7.272,48.06L780.4,127.183a93.394,93.394,0,0,1-12.309-21.7,37.578,37.578,0,0,0,16.846-31.357Z" transform="translate(-620.729 -30.449)" fill="#ed9da0"/><path d="M816.9,238.023,822.331,162a50.281,50.281,0,0,0-2.452-19.484l-16.1-48.274-47.4,15.224-20,45.755-10.892,19.97a23.346,23.346,0,0,0,3.987,27.685l6.9,6.9-9.625,35.3,1.013-.036-1.358.176s-64.355,193.6-62.046,358.253h82.6l4.9-191.126L766.221,610.9l108.849-6.269L816.9,238.023Z" transform="translate(-637.838 -8.692)" fill="#e6e6e6"/><path d="M799.037,125.2s-1.757,13.332-18.032,13.763l-33.013.883S775.9,71.931,764.419,79.581s-42.076-24.426-42.076-24.426l-9.029,16.933s-21.566-7.811,2.336-26.939c0,0,28.524-22.054,58.805-8.809S799.037,125.2,799.037,125.2Z" transform="translate(-622.742 -32.106)" fill="#090814"/><path d="M676.163,238.186c-.436-8.488,7.515-15.794,17.769-16.326a20.189,20.189,0,0,1,14.78,5.01l.238-.012,60.785-6.295-4.559-60.328c-1.687-11.666,1.589-23.43,13.081-26.07h0A22.662,22.662,0,0,1,806,156.355l-.348,75.989A19.522,19.522,0,0,1,786,251.785l-76.285-5.7a20.189,20.189,0,0,1-14.185,6.51c-10.255.531-18.927-5.921-19.362-14.4Z" transform="translate(-633.371 6.132)" fill="#ed9da0"/><path d="M736.562,135.293l3.661,68.828,50.875-3.452-9-71.582" transform="translate(-610.61 4.439)" fill="#e6e6e6"/></g><path d="M631.6,709.085l374.156.418a1.639,1.639,0,0,0,0-3.278L631.6,705.807a1.64,1.64,0,0,0,0,3.28Z" transform="translate(-47.392 36.393)" fill="#e6e6e6"/><g transform="translate(0)"><path d="M881.88,381.477H346.388a18.106,18.106,0,0,1-18-18.174V151.37a18.106,18.106,0,0,1,18-18.17H881.88a18.106,18.106,0,0,1,18,18.171V363.3a18.106,18.106,0,0,1-18,18.171Z" transform="translate(-328.39 -133.2)" fill="#090814"/><path d="M877.835,377.294H346.257a17.886,17.886,0,0,1-17.865-17.865V151.064A17.886,17.886,0,0,1,346.257,133.2H877.835A17.886,17.886,0,0,1,895.7,151.065V359.428a17.886,17.886,0,0,1-17.865,17.865Z" transform="translate(-326.299 -131.11)" fill="#f2f2f2"/><path d="M753.366,365.407H430.142a90.946,90.946,0,0,1-90.848-90.848v-39.6a90.946,90.946,0,0,1,90.848-90.85H792.959a90.946,90.946,0,0,1,90.848,90.85A130.6,130.6,0,0,1,753.366,365.407Z" transform="translate(-325.807 -130.616)" fill="#fff"/><path d="M665.121,201.574H451.466a4.608,4.608,0,1,1,0-9.215H665.121a4.608,4.608,0,1,1,0,9.215Z" transform="translate(-228.089 -101.751)" fill="#e6e6e6"/><path d="M716.021,248.6H450.658c-2.1,0-3.8-2.062-3.8-4.607s1.7-4.608,3.8-4.608H716.021c2.1,0,3.8,2.063,3.8,4.607s-1.7,4.608-3.8,4.608Z" transform="translate(-228.089 -119.86)" fill="#e6e6e6"/><path d="M716.021,295.636H450.658c-2.1,0-3.8-2.062-3.8-4.607s1.7-4.608,3.8-4.608H716.021c2.1,0,3.8,2.062,3.8,4.607s-1.7,4.608-3.8,4.608Z" transform="translate(-228.089 -137.969)" fill="#e6e6e6"/><path d="M699.506,307.834" transform="translate(-309.509 -123.209)" fill="#2f2e41"/><ellipse cx="59.146" cy="59.146" rx="59.146" ry="59.146" transform="translate(69.344 64.976)" fill="#4f7cff"/><path d="M588,271.188a5.111,5.111,0,0,1-4.09-2.046l-12.546-16.721a5.119,5.119,0,0,1,8.182-6.135l8.2,10.938,21.07-31.608a5.119,5.119,0,0,1,8.509,5.673L592.25,268.906a5.119,5.119,0,0,1-4.113,2.276Z" transform="translate(-465.461 -122.823)" fill="#fff"/></g><g transform="matrix(-0.259, -0.966, 0.966, -0.259, 297.795, 464.919)"><path d="M1.99,288.62,0,288.227c.418-6.923.969-13.9,1.624-20.752L3.6,268.1C2.945,274.871,2.4,281.773,1.99,288.62Zm3.946-40.811-1.945-.853c.9-6.767,1.946-13.56,3.091-20.2l1.911,1.083c-1.133,6.568-2.165,13.289-3.057,19.974Zm6.827-39.572-1.868-1.3c1.382-6.5,2.9-13,4.511-19.326l1.818,1.518c-1.6,6.258-3.1,12.688-4.464,19.113Zm9.6-37.655L20.6,168.856c1.833-6.116,3.8-12.208,5.85-18.106l1.7,1.927c-2.026,5.833-3.97,11.857-5.785,17.9Zm12.192-35.1-1.624-2.12c2.256-5.642,4.634-11.227,7.082-16.6l1.544,2.3c-2.419,5.311-4.77,10.837-7,16.413Zm14.57-31.978-1.454-2.478c2.629-5.072,5.385-10.058,8.192-14.822l1.37,2.631c-2.779,4.723-5.5,9.654-8.105,14.67Zm16.7-28.345-1.273-2.8c2.967-4.427,6.052-8.736,9.167-12.806l1.173,2.936c-3.081,4.026-6.135,8.289-9.065,12.666Zm18.56-24.25-1.066-3.068c3.254-3.7,6.617-7.261,9.994-10.574l.954,3.184c-3.338,3.276-6.665,6.8-9.883,10.457ZM104.5,31.175l-.838-3.29c3.487-2.912,7.075-5.655,10.664-8.155l.722,3.379c-3.548,2.471-7.094,5.184-10.542,8.065ZM125.841,16.3l-.6-3.458a124.543,124.543,0,0,1,11.162-5.6l.473,3.509c-3.694,1.631-7.408,3.5-11.035,5.553Zm22.248-9.778-.346-3.568A106.862,106.862,0,0,1,159.211,0l.218,3.6A105.509,105.509,0,0,0,148.09,6.52Z" transform="translate(8.031 8.038)" fill="#d6d6e3"/><path d="M16.364,1.74l-1.43-1.4-6.9,7.053L1.5,0,0,1.333,7.962,10.34Z" transform="translate(0 305.883)" fill="#d6d6e3"/><path d="M1.738,16.364l-1.4-1.43,7.056-6.9L0,1.5,1.333,0,10.34,7.962Z" transform="translate(176.759 0)" fill="#d6d6e3"/></g></svg>